# xmcd
# 
# Track frame offsets:
#     150
#     11858
#     23409
#     35709
#     46612
#     60441
#     72702
#     85869
#     97530
#     111412
#     126141
#     137304
#     149711
#     162403
#     172967
#     191940
#     205840
#     222584
#     241404
#     254577
#     264179
#     278577
#     299011
# 
# Disc length: 4380
# 
# Revision: 1
# Processed by: cddbd v1.5.2PL0 Copyright (c) Steve Scherf et al.
# Submitted via: fre:ac v1.0.31
# 
DISCID=58111a17
DTITLE=Various Artist - A Little Bit Country - The Greatest Country Hits Of All Time
DYEAR=2011
DGENRE=Country
TTITLE0=Johnny Cash - I Walk The Line
TTITLE1=Willie Nelson - On The Road Again
TTITLE2=Tammy Wynette - Help Me Make It Through The Night
TTITLE3=Elvis Presley - Your Cheatin' Heart
TTITLE4=George Jones - A Good Year For The Roses
TTITLE5=Charlie Rich - By The Time I Get To Phoenix
TTITLE6=Dolly Parton - I Will Alwasy Love You
TTITLE7=The Byrds - You Ain't Goin' Nowhere
TTITLE8=New Riders Of The Purple Sage - Lousiana Lady
TTITLE9=Crazy Horse - Love Is Gone
TTITLE10=Waylon Jennings and Willie Nelson - Mammas Don't Let Your Babies Grow Up To Be Cowboys
TTITLE11=Johnny Cash and June Carter - Jackson
TTITLE12=Jerry Reed - East Bound And Down
TTITLE13=The Statler Brothers - Flowers On The Wall
TTITLE14=Alabama - Mountain Music
TTITLE15=The Outlaws - There Goes Another Love Song
TTITLE16=Keith Whitley - When You Say Nothing At All
TTITLE17=Kenny Rogers and Dolly Parton - Islands In The Stream
TTITLE18=Lynn Anderson - Rose Garden
TTITLE19=Waylon Jennings - Theme For The Dukes Of Hazzard 'Good Of Boys'
TTITLE20=John Denver - Take Me Home Country Roads
TTITLE21=Kris Kristofferson - Sunday Mornin' Comin' Down
TTITLE22=Dan Fogelberg - Sutter's Mill
EXTD=
EXTT0=
EXTT1=
EXTT2=
EXTT3=
EXTT4=
EXTT5=
EXTT6=
EXTT7=
EXTT8=
EXTT9=
EXTT10=
EXTT11=
EXTT12=
EXTT13=
EXTT14=
EXTT15=
EXTT16=
EXTT17=
EXTT18=
EXTT19=
EXTT20=
EXTT21=
EXTT22=
PLAYORDER=
